<svg xmlns="http://www.w3.org/2000/svg" width="518.8988" height="460.7708" viewBox="0 0 518.8988 460.7708"><ellipse cx="282.0757" cy="312.2254" rx="236.8231" ry="148.5454" fill="#e6d8d6"/><path d="M0,151.3226C0,341.3074,166.4432,382.1957,231.6434,382.1957s231.6435-40.8883,231.6435-230.8731Z" fill="#f9f6f6"/><path d="M456.2342,114.1842a125.7011,125.7011,0,0,0-19.1012-32.69,164.5942,164.5942,0,0,0-27.0082-26.6277,217.4084,217.4084,0,0,0-31.842-20.6752c-22.35-11.99-46.5229-20.3507-71.2172-25.9432a348.9487,348.9487,0,0,0-150.8443,0c-24.6944,5.5925-48.8672,13.9535-71.2173,25.9432A217.4138,217.4138,0,0,0,53.162,54.8668,164.5975,164.5975,0,0,0,26.1539,81.4945a125.6983,125.6983,0,0,0-19.1012,32.69A106.2437,106.2437,0,0,0,0,151.3226a106.2435,106.2435,0,0,0,7.0527,37.1383,125.6983,125.6983,0,0,0,19.1012,32.69A164.6015,164.6015,0,0,0,53.162,247.7783a217.4138,217.4138,0,0,0,31.842,20.6752c22.35,11.99,46.5229,20.3508,71.2173,25.9432a346.5538,346.5538,0,0,0,75.4221,8.2484,346.554,346.554,0,0,0,75.4222-8.2484c24.6943-5.5924,48.8672-13.9535,71.2172-25.9432a217.4084,217.4084,0,0,0,31.842-20.6752,164.5981,164.5981,0,0,0,27.0082-26.6277,125.7011,125.7011,0,0,0,19.1012-32.69,106.2435,106.2435,0,0,0,7.0527-37.1383A106.2437,106.2437,0,0,0,456.2342,114.1842Z" fill="#fff"/><path d="M442.2515,183.0608A110.7407,110.7407,0,0,1,425.257,211.68a147.4045,147.4045,0,0,1-24.7477,23.9083,201.9541,201.9541,0,0,1-29.72,18.8577c-20.9529,11.066-43.8765,18.7553-67.3195,23.97a330.2142,330.2142,0,0,1-71.8267,7.9123,330.2126,330.2126,0,0,1-71.8266-7.9123c-23.443-5.2145-46.3666-12.9038-67.3195-23.97a201.96,201.96,0,0,1-29.72-18.8577A147.4083,147.4083,0,0,1,38.03,211.68a110.7463,110.7463,0,0,1-16.9945-28.6193,91.3569,91.3569,0,0,1-6.2467-31.7382,91.4263,91.4263,0,0,1,6.0772-31.8038,110.94,110.94,0,0,1,16.88-28.7805A148.1326,148.1326,0,0,1,62.4243,66.6088,202.5147,202.5147,0,0,1,92.1285,47.51c20.9762-11.1935,43.9371-19.0363,67.4488-24.3447a326.5724,326.5724,0,0,1,144.1322,0c23.5118,5.3084,46.4726,13.1512,67.4488,24.3447a202.521,202.521,0,0,1,29.7043,19.0992,148.1365,148.1365,0,0,1,24.6787,24.1295,110.9423,110.9423,0,0,1,16.88,28.7805,91.4262,91.4262,0,0,1,6.0771,31.8038A91.3523,91.3523,0,0,1,442.2515,183.0608Z" fill="#f9f6f6"/><path d="M442.2515,183.0608A110.7407,110.7407,0,0,1,425.257,211.68a147.4045,147.4045,0,0,1-24.7477,23.9083,201.9541,201.9541,0,0,1-29.72,18.8577c-20.9529,11.066-43.8765,18.7553-67.3195,23.97a330.2142,330.2142,0,0,1-71.8267,7.9123,330.2126,330.2126,0,0,1-71.8266-7.9123c-23.443-5.2145-46.3666-12.9038-67.3195-23.97a201.96,201.96,0,0,1-29.72-18.8577A147.4083,147.4083,0,0,1,38.03,211.68a110.7463,110.7463,0,0,1-16.9945-28.6193,91.3569,91.3569,0,0,1-6.2467-31.7382,91.4263,91.4263,0,0,1,6.0772-31.8038,110.94,110.94,0,0,1,16.88-28.7805A148.1326,148.1326,0,0,1,62.4243,66.6088,202.5147,202.5147,0,0,1,92.1285,47.51c20.9762-11.1935,43.9371-19.0363,67.4488-24.3447a326.5724,326.5724,0,0,1,144.1322,0c23.5118,5.3084,46.4726,13.1512,67.4488,24.3447a202.521,202.521,0,0,1,29.7043,19.0992,148.1365,148.1365,0,0,1,24.6787,24.1295,110.9423,110.9423,0,0,1,16.88,28.7805,91.4262,91.4262,0,0,1,6.0771,31.8038A91.3523,91.3523,0,0,1,442.2515,183.0608Z" fill="#f9f6f6"/><path d="M231.6434,229.1288c-45.1,0-82.9632,18.58-93.4991,43.6775q6.6329,1.9744,13.3634,3.6472c10.626-17.4717,42.4849-30.1571,80.1357-30.1571s69.51,12.6854,80.1358,30.1571q6.7249-1.6781,13.3633-3.6472C314.6067,247.7086,276.7435,229.1288,231.6434,229.1288Z" fill="#e6d8d6"/><path d="M265.7446,16.9434c-11.316-1.1546-22.7085-1.743-34.1012-1.8293a331.3585,331.3585,0,0,0-72.0661,8.0508C136.0656,28.4733,113.1047,36.3161,92.1285,47.51A202.5147,202.5147,0,0,0,62.4243,66.6088,148.1326,148.1326,0,0,0,37.7456,90.7383a110.94,110.94,0,0,0-16.88,28.7805,91.4263,91.4263,0,0,0-6.0772,31.8038,91.3569,91.3569,0,0,0,6.2467,31.7382A110.7463,110.7463,0,0,0,38.03,211.68a134.89,134.89,0,0,0,9.92,10.9437C48.2132,221.1387,72.99,84.1324,265.7446,16.9434Z" fill="#e6d8d6"/><path d="M235.7858,367.0286c-25.827-.3943-32.7274-4.7532-38.2477-8.1926s-21.3159-23.023-32.9245-27.6892c11.53-.0286,30.2842,11.0135,36.2132,1.842.64-.99,5.4169-10.8188-16.5459-16.5874-22.66-5.9519-35.6657,5.076-39.406,5.3431s-19.2575-6.6506-19.2575-6.6506,14.14,17.1407,17.1223,27.0061c2.8158,9.3138,6.0733,22.93,18.6742,28.8586,26.9882,8.1187,51.9171,11.1643,69.6039,11.234,14.4815-.032,33.8756-2.0688,55.306-7.2762l.0012,0,.0028,0q2.892-.7029,5.83-1.4811c7.1589-2.2313,18.7959-7.3341,22.4177-17.5941,5.3554-15.171,15.2524-33.6715,23.1385-40.1245,0,0-40.4163,12.868-50.2739,22.5285S261.6128,367.4229,235.7858,367.0286Z" fill="#3d2e2c"/><path d="M164.6136,331.1468c11.53-.0286,30.2842,11.0135,36.2132,1.842.64-.99,5.4169-10.8188-16.5459-16.5874-22.66-5.9519-35.6657,5.076-39.406,5.3431s-19.2575-6.6506-19.2575-6.6506,14.14,17.1407,17.1223,27.0061c2.8158,9.3138,6.0733,22.93,18.6742,28.8586a273.8525,273.8525,0,0,0,47.2138,9.8206c28.2537-1.2487,27.1581-13.7506,27.1581-13.7506-25.827-.3943-32.7274-4.7532-38.2477-8.1926S176.2222,335.813,164.6136,331.1468Z" fill="#f55538"/></svg>