<svg xmlns="http://www.w3.org/2000/svg" viewBox="0 0 200 200.26"><defs><style>.cls-1{fill:none;}.cls-2{fill:#e5f7ed;stroke:#e5f7ed;stroke-miterlimit:10;}.cls-3{fill:#f9ba8a;}.cls-4{fill:#41342e;}.cls-5{fill:#f8cd5d;}.cls-6{fill:#e5b436;}.cls-7{fill:#fff;}.cls-8{fill:#ee6352;}.cls-9{fill:#f7c942;}.cls-10{fill:#99dfb8;}.cls-11{fill:#00b14f;}.cls-12{fill:#66c9e2;}.cls-13{fill:#33b7d9;}</style></defs><title>Asset 20</title><g id="Layer_2" data-name="Layer 2"><g id="Layer_1-2" data-name="Layer 1"><rect class="cls-1" width="200" height="200"/><path class="cls-2" d="M175.35,66.91a25.66,25.66,0,1,0-43.82,26.72,26.69,26.69,0,0,0,2.89,3.87,23,23,0,0,1-5.91,6s6.86,1.35,10-2.42a25.67,25.67,0,0,0,36.89-34.21Z"/><path class="cls-3" d="M44,111.62s5.51,14,3.18,21.82c0,0,3.22,2.21,10.57,1.51s9.46-3.83,9.46-3.83a63.63,63.63,0,0,1-3.12-15.4Z"/><path class="cls-3" d="M42.28,73.1s-22.34,9.66-6.19,30.19S66.14,119.6,72,115.07,82.29,97,64.33,74C64.33,74,56,64.49,42.28,73.1Z"/><path class="cls-4" d="M39.41,107.2s6-10.7-1.2-19.91c0,0,17.48-8,23.53-15.38s-5-14.06-9.19-10.14c0,0-2,1.81-1.69,4.08a5.72,5.72,0,0,0-6.61,4.38s-13.89,5.43-16.16,16S39.41,107.2,39.41,107.2Z"/><ellipse class="cls-3" cx="39.68" cy="107.69" rx="5.06" ry="6.85" transform="translate(-64.52 59.6) rotate(-45)"/><path class="cls-5" d="M37.07,133.47S9.66,148.82,0,200.26H26.27Z"/><path class="cls-6" d="M75.17,132.38s29.56,17.26,43.65,67.88H92.65Z"/><path class="cls-6" d="M27.36,165.34S21,168.54,9.84,200.26H25.43Z"/><path class="cls-5" d="M56.84,200.26H21c0-72.29,21.05-71.91,35.8-71.91s35.81-.38,35.81,71.91Z"/><polygon class="cls-7" points="47.23 123.35 42.14 130.41 52.09 138.29 56.84 128.35 47.23 123.35"/><polygon class="cls-7" points="66.42 123.35 71.51 130.41 61.56 138.29 56.81 128.35 66.42 123.35"/><path class="cls-3" d="M124.15,135.5s6-18.27,9.21-19.93-1.66,9.06-1.81,10c0,0,7.2.86,7.15,5s-4.93,9.66-4.93,9.66a11.77,11.77,0,0,0-1.81,3.87,14.55,14.55,0,0,1-9-3.07A32.61,32.61,0,0,1,124.15,135.5Z"/><path class="cls-5" d="M122.14,139.88l10.77,3.52-14.09,56.86H95.87s-2-4,2.32-15Z"/><path class="cls-2" d="M191.28,125.62a25.67,25.67,0,1,0-40.93,30.58,23.24,23.24,0,0,1-5.92,6.05s6.86,1.35,9.95-2.43a25.67,25.67,0,0,0,36.9-34.2Z"/><circle class="cls-2" cx="105.01" cy="42.65" r="25.66"/><path class="cls-2" d="M86.77,58.41c-1.9,4.28-6.69,7.51-6.69,7.51S89.52,67.78,91.25,61Z"/><path class="cls-8" d="M117.52,41.67h0l.8-9.82a2.15,2.15,0,0,0-.61-1.91,2.18,2.18,0,0,0-1.91-.61l-9.81.8h0a2.63,2.63,0,0,0-1.81.75L92.43,42.65a2.62,2.62,0,0,0,0,3.7l8.88,8.88a2.62,2.62,0,0,0,3.7,0l11.75-11.75A2.6,2.6,0,0,0,117.52,41.67ZM113,34.62a1.47,1.47,0,1,1,2.08,0A1.47,1.47,0,0,1,113,34.62Z"/><path class="cls-9" d="M105,41.28a3.09,3.09,0,1,1,3.09-3.09A3.09,3.09,0,0,1,105,41.28Zm0-4.36a1.28,1.28,0,0,0,0,2.55,1.28,1.28,0,1,0,0-2.55Z"/><rect class="cls-9" x="97.9" y="41.75" width="14.23" height="1.81"/><path class="cls-9" d="M105,50.2a3.09,3.09,0,1,1,3.09-3.09A3.09,3.09,0,0,1,105,50.2Zm0-4.37a1.28,1.28,0,1,0,1.28,1.28A1.28,1.28,0,0,0,105,45.83Z"/><path class="cls-10" d="M167.35,132.26h15.46a2,2,0,0,1,2,2v10a2,2,0,0,1-2,2h-.87v3.1l-3.09-3.1h-11.5a2,2,0,0,1-2-2v-10A2,2,0,0,1,167.35,132.26Z"/><circle class="cls-7" cx="180.15" cy="139.23" r="1.28"/><circle class="cls-7" cx="175.08" cy="139.23" r="1.28"/><path class="cls-7" d="M170,138a1.28,1.28,0,1,1-1.28,1.28A1.28,1.28,0,0,1,170,138Z"/><path class="cls-11" d="M171.08,128.32H155.62a2,2,0,0,0-2,2v10a2,2,0,0,0,2,2h.86v3.09l3.1-3.09h11.5a2,2,0,0,0,2-2v-10A2,2,0,0,0,171.08,128.32Z"/><circle class="cls-7" cx="158.28" cy="135.29" r="1.28"/><circle class="cls-7" cx="163.35" cy="135.29" r="1.28"/><path class="cls-7" d="M168.42,134a1.28,1.28,0,1,0,1.28,1.27A1.28,1.28,0,0,0,168.42,134Z"/><rect class="cls-12" x="140.29" y="72.45" width="26.78" height="16.88" rx="1.22" transform="translate(-12.61 30.79) rotate(-10.99)"/><rect class="cls-13" x="139.67" y="76.1" width="26.78" height="3.19" transform="translate(-12.01 30.61) rotate(-10.99)"/><rect class="cls-7" x="142.59" y="82.35" width="7.32" height="1.59" rx="0.8" transform="translate(-13.17 29.41) rotate(-10.99)"/><rect class="cls-7" x="143.12" y="84.69" width="16.21" height="1.59" rx="0.8" transform="translate(-13.53 30.41) rotate(-10.99)"/></g></g></svg>